# xmcd CD database file
#
# Track frame offsets:
#	150
#	15918
#	33458
#
# Disc length: 677 seconds
#
# Revision: 0
# Processed by: cddbd v1.5.1PL0 Copyright (c) Steve Scherf et al.
# Submitted via: CDex 1.51
#
DISCID=1502a303
DTITLE=STRAWBERRY JAM - かさぶた
DYEAR=2001
DGENRE=JPop
TTITLE0=かさぶた
TTITLE1=17ノ夏
TTITLE2=Please
EXTD=YEAR: 2001
EXTT0=
EXTT1=
EXTT2=
PLAYORDER=
